# xmcd CD database file
#
# Track frame offsets:
#	150
#	20747
#	42362
#	62875
#
# Disc length: 1124 seconds
#
# Revision: 1
# Processed by: cddbd v1.5.1PL0 Copyright (c) Steve Scherf et al.
# Submitted via: CDex 1.51
#
DISCID=33046204
DTITLE=木内美歩 - チャンスな季節
DYEAR=1994
DGENRE=Pop
TTITLE0=チャンスな季節
TTITLE1=別の誰かを愛するふりしてた
TTITLE2=チャンスな季節 (オリジナル・カラオケ)
TTITLE3=別の誰か愛するふりしてた (オリジナル・カラオケ)
EXTD=YEAR: 1994
EXTT0=
EXTT1=
EXTT2=
EXTT3=
PLAYORDER=
